<?xml version="1.0" standalone="no"?>
<!DOCTYPE svg PUBLIC "-//W3C//DTD SVG 20010904//EN"
 "http://www.w3.org/TR/2001/REC-SVG-20010904/DTD/svg10.dtd">
<svg version="1.0" xmlns="http://www.w3.org/2000/svg"
 width="500.000000pt" height="500.000000pt" viewBox="0 0 500.000000 500.000000"
 preserveAspectRatio="xMidYMid meet">
<metadata>
Created by potrace 1.11, written by Peter Selinger 2001-2013
</metadata>
<g transform="translate(0.000000,500.000000) scale(0.100000,-0.100000)"
fill="#000000" stroke="none">
<path d="M276 3989 c6 -8 116 -162 244 -344 288 -407 283 -401 355 -505 33
-47 63 -89 68 -95 7 -9 94 -132 208 -295 25 -36 280 -398 567 -805 287 -407
527 -747 532 -755 20 -28 182 -255 184 -258 2 -1 2 616 2 1372 -1 756 -3 1376
-6 1379 -3 2 -30 7 -60 11 -30 3 -66 8 -80 10 -14 3 -43 7 -65 11 -66 10 -238
35 -275 40 -19 3 -46 7 -60 10 -14 2 -47 7 -75 10 -27 3 -57 8 -65 10 -8 2
-35 6 -60 9 -25 3 -54 8 -65 10 -11 2 -42 7 -70 10 -27 4 -61 9 -75 11 -14 2
-90 13 -170 25 -80 12 -156 23 -170 25 -96 15 -161 25 -199 30 -23 3 -55 7
-70 10 -14 2 -75 11 -136 20 -60 9 -121 18 -135 20 -80 13 -159 25 -190 29
-19 2 -60 8 -90 12 -47 6 -53 5 -44 -7z"/>
<path d="M4630 3989 c-25 -4 -70 -10 -100 -14 -30 -3 -62 -8 -70 -10 -8 -2
-35 -7 -60 -10 -25 -3 -85 -12 -135 -20 -49 -8 -110 -17 -135 -20 -25 -3 -61
-8 -80 -11 -19 -3 -60 -9 -90 -14 -30 -5 -75 -11 -100 -14 -25 -4 -56 -8 -70
-11 -14 -2 -41 -7 -60 -9 -19 -3 -64 -9 -100 -15 -36 -5 -85 -13 -110 -16 -41
-6 -138 -20 -200 -30 -28 -4 -104 -15 -135 -20 -18 -2 -72 -10 -135 -20 -14
-2 -45 -7 -70 -10 -25 -3 -70 -10 -100 -15 -30 -5 -75 -12 -100 -15 -25 -3
-54 -8 -65 -10 -11 -2 -45 -6 -76 -10 -31 -4 -62 -10 -68 -14 -8 -5 -10 -371
-9 -1381 l3 -1373 47 69 c26 38 70 101 97 139 27 39 72 102 98 140 27 39 126
178 219 310 94 132 185 263 204 290 18 28 37 52 41 55 3 3 19 25 35 50 16 25
72 106 125 180 129 181 512 723 600 849 132 189 655 931 677 959 l24 32 -28
-1 c-16 -1 -49 -5 -74 -10z"/>
<path d="M250 3807 c0 -3 4 -16 10 -29 5 -13 36 -102 69 -198 151 -445 183
-536 188 -550 3 -8 7 -19 9 -25 1 -5 21 -62 43 -125 47 -137 266 -774 325
-947 45 -133 50 -142 122 -191 50 -34 96 -66 291 -203 59 -41 281 -196 493
-344 212 -147 414 -288 450 -313 36 -25 81 -57 100 -71 l35 -26 -19 30 c-21
32 -239 342 -586 833 -118 166 -222 313 -230 325 -24 37 -198 284 -275 392
-40 55 -98 138 -130 185 -33 47 -63 90 -68 95 -6 8 -328 465 -379 539 -7 10
-20 28 -29 40 -9 11 -81 113 -160 226 -172 246 -259 366 -259 357z"/>
<path d="M4723 3783 c-10 -16 -34 -50 -54 -78 -29 -41 -265 -375 -455 -646
-134 -191 -326 -463 -431 -612 -68 -94 -127 -179 -133 -187 -40 -57 -751
-1067 -758 -1075 -15 -20 -240 -341 -258 -370 l-19 -30 50 36 c55 40 275 194
400 280 44 31 148 103 230 161 224 157 242 169 512 358 l251 175 36 105 c19
58 74 218 122 355 47 138 119 347 160 465 40 118 116 341 169 495 175 507 204
595 200 595 -3 0 -12 -12 -22 -27z"/>
</g>
</svg>
